<?xml version="1.0" encoding="UTF-8"?>
<svg width="256" height="256" viewBox="55 75 150 150" xmlns="http://www.w3.org/2000/svg">
  <!-- 背景 -->
  <rect width="256" height="256" rx="16" ry="16" fill="#2563eb"/>
  <!-- 主问号 -->
  <path d="M128,80c-13.255,0-24,10.745-24,24c0,13.255,10.745,24,24,24s24-10.745,24-24C152,90.745,141.255,80,128,80z M128,112
	c-4.418,0-8-3.582-8-8s3.582-8,8-8s8,3.582,8,8S132.418,112,128,112z" fill="#ffffff"/>
  <path d="M128,128c-6.627,0-12,5.373-12,12v24c0,6.627,5.373,12,12,12s12-5.373,12-12v-4h-8v4c0,2.21-1.79,4-4,4
	s-4-1.79-4-4v-24c0-2.21,1.79-4,4-4h24c2.21,0,4,1.79,4,4v4h-8v-4C140,133.373,134.627,128,128,128z" fill="#ffffff"/>
  <!-- 参数键值对符号 -->
  <text x="92" y="190" font-family="Arial" font-size="16" font-weight="bold" fill="#ffffff">key=value</text>
  <text x="128" y="215" font-family="Arial" font-size="14" font-weight="bold" fill="#ffffff" text-anchor="middle">QueryStringViewTools</text>
</svg>